<?xml version="1.0" encoding="UTF-8" standalone="no"?>
<svg
   xmlns:dc="http://purl.org/dc/elements/1.1/"
   xmlns:cc="http://creativecommons.org/ns#"
   xmlns:rdf="http://www.w3.org/1999/02/22-rdf-syntax-ns#"
   xmlns:svg="http://www.w3.org/2000/svg"
   xmlns="http://www.w3.org/2000/svg"
   xmlns:sodipodi="http://sodipodi.sourceforge.net/DTD/sodipodi-0.dtd"
   xmlns:inkscape="http://www.inkscape.org/namespaces/inkscape"
   width="100"
   height="100"
   viewBox="0 0 26.458333 26.458334"
   version="1.1"
   id="svg8"
   inkscape:version="1.0.1 (3bc2e813f5, 2020-09-07)"
   sodipodi:docname="dessin.svg">
  <defs
     id="defs2" />
  <sodipodi:namedview
     id="base"
     pagecolor="#ffffff"
     bordercolor="#666666"
     borderopacity="1.0"
     inkscape:pageopacity="0.0"
     inkscape:pageshadow="2"
     inkscape:zoom="1.979899"
     inkscape:cx="-58.384777"
     inkscape:cy="85.602486"
     inkscape:document-units="mm"
     inkscape:current-layer="layer1"
     inkscape:document-rotation="0"
     showgrid="false"
     units="px"
     inkscape:window-width="1920"
     inkscape:window-height="1009"
     inkscape:window-x="1272"
     inkscape:window-y="-8"
     inkscape:window-maximized="1" />
  <metadata
     id="metadata5">
    <rdf:RDF>
      <cc:Work
         rdf:about="">
        <dc:format>image/svg+xml</dc:format>
        <dc:type
           rdf:resource="http://purl.org/dc/dcmitype/StillImage" />
        <dc:title></dc:title>
      </cc:Work>
    </rdf:RDF>
  </metadata>
  <g
     inkscape:label="Calque 1"
     inkscape:groupmode="layer"
     id="layer1">
    <g
       id="g1036"
       transform="matrix(0.18207402,0,0,0.18207402,-4.5191958,-2.5299532)">
      <path
         id="rect833"
         style="opacity:0.999;fill:#9966c3;fill-opacity:1;stroke:none;stroke-width:2.74899;stroke-linecap:round;stroke-linejoin:round;paint-order:markers stroke fill;stop-color:#000000"
         d="m 57.506534,37.021994 -22.190892,0.355018 c -4.815981,0.07706 -8.520824,4.012959 -8.30647,8.824783 0.214354,4.811826 4.264085,8.623826 9.080066,8.546766 l 20.911386,-0.334864 7.371641,23.346896 8.434112,34.196357 c 1.57947,6.40416 5.31019,11.90625 11.90625,11.90625 h 61.563683 c 6.59606,0 10.23965,-5.52421 11.90625,-11.90625 l 9.525,-36.474771 c 1.6666,-6.382041 -5.31019,-11.90625 -11.90625,-11.90625 H 78.038616 C 76.456683,58.706352 74.891405,53.883892 72.978975,47.774827 69.286215,36.402366 65.887759,37.231615 57.506534,37.021994 Z" />
      <circle
         style="opacity:0.999;fill:#9966c3;fill-opacity:1;stroke:none;stroke-width:2.74899;stroke-linecap:round;stroke-linejoin:round;paint-order:markers stroke fill;stop-color:#000000"
         id="path879"
         cx="92.605011"
         cy="141.5461"
         r="11.394445" />
      <circle
         style="opacity:0.999;fill:#9966c3;fill-opacity:1;stroke:none;stroke-width:2.74899;stroke-linecap:round;stroke-linejoin:round;paint-order:markers stroke fill;stop-color:#000000"
         id="path879-0"
         cx="139.47443"
         cy="141.54483"
         r="11.394445" />
      <path
         id="path879-0-2"
         style="opacity:0.999;fill:#9966c3;fill-opacity:1;stroke:none;stroke-width:2.74899;stroke-linecap:round;stroke-linejoin:round;paint-order:markers stroke fill;stop-color:#000000"
         d="m 141.4267,20.166196 a 11.394445,11.394445 0 0 0 -11.33471,10.2309 c -2.86258,1.651285 -5.46945,3.911171 -7.6569,6.730338 -3.58371,4.618654 -6.05211,10.695321 -6.89208,18.008203 a 11.394445,11.394445 0 0 0 -8.13852,10.919748 11.394445,11.394445 0 0 0 11.39465,11.394136 11.394445,11.394445 0 0 0 11.39414,-11.394136 11.394445,11.394445 0 0 0 -8.92091,-11.122837 c 0.81811,-5.999363 2.8864,-10.787014 5.63738,-14.332458 1.27625,-1.644816 2.69769,-3.028553 4.22352,-4.153751 A 11.394445,11.394445 0 0 0 141.4267,42.954985 11.394445,11.394445 0 0 0 152.82135,31.56085 11.394445,11.394445 0 0 0 141.4267,20.166196 Z" />
      <g
         id="g1015"
         transform="matrix(1.0087663,0,0,1.0087663,2.2026054,-1.0049844)">
        <circle
           style="opacity:0.999;fill:#ffffff;stroke:none;stroke-width:1.9365;stroke-linecap:round;stroke-linejoin:round;paint-order:markers stroke fill;stop-color:#000000"
           id="path879-1"
           cx="92.564835"
           cy="85.811241"
           r="8.0267239" />
        <circle
           style="opacity:0.999;fill:#ffffff;stroke:none;stroke-width:1.9365;stroke-linecap:round;stroke-linejoin:round;paint-order:markers stroke fill;stop-color:#000000"
           id="path879-0-8"
           cx="136.87482"
           cy="85.425758"
           r="8.0267239" />
      </g>
      <rect
         style="opacity:0.999;fill:#ffffff;stroke:none;stroke-width:5.14243;stroke-linecap:round;stroke-linejoin:round;stroke-miterlimit:4;stroke-dasharray:none;paint-order:markers stroke fill;stop-color:#000000"
         id="rect962"
         width="37.663841"
         height="6.9866772"
         x="99.096176"
         y="103.14517"
         ry="3.4933386" />
      <g
         id="g997"
         transform="translate(-1.2149096,-0.25442302)"
         style="fill:#9966c3;fill-opacity:1">
        <rect
           style="opacity:0.999;fill:#9966c3;fill-opacity:1;stroke:none;stroke-width:5.66499;stroke-linecap:round;stroke-linejoin:round;stroke-miterlimit:4;stroke-dasharray:none;paint-order:markers stroke fill;stop-color:#000000"
           id="rect964"
           width="1.2721151"
           height="16.041395"
           x="107.01236"
           y="99.485146"
           ry="0.63605756" />
        <rect
           style="opacity:0.999;fill:#9966c3;fill-opacity:1;stroke:none;stroke-width:5.66499;stroke-linecap:round;stroke-linejoin:round;stroke-miterlimit:4;stroke-dasharray:none;paint-order:markers stroke fill;stop-color:#000000"
           id="rect964-0"
           width="1.2721152"
           height="16.041395"
           x="122.33849"
           y="99.89537"
           ry="0.63605762" />
        <rect
           style="opacity:0.999;fill:#9966c3;fill-opacity:1;stroke:none;stroke-width:5.66499;stroke-linecap:round;stroke-linejoin:round;stroke-miterlimit:4;stroke-dasharray:none;paint-order:markers stroke fill;stop-color:#000000"
           id="rect964-2"
           width="1.2721152"
           height="16.041395"
           x="114.67542"
           y="98.650688"
           ry="0.63605762" />
        <rect
           style="opacity:0.999;fill:#9966c3;fill-opacity:1;stroke:none;stroke-width:5.66499;stroke-linecap:round;stroke-linejoin:round;stroke-miterlimit:4;stroke-dasharray:none;paint-order:markers stroke fill;stop-color:#000000"
           id="rect964-3"
           width="1.2721152"
           height="16.041395"
           x="130.00154"
           y="98.52565"
           ry="0.63605762" />
      </g>
    </g>
  </g>
</svg>
